<svg xmlns="http://www.w3.org/2000/svg" xmlns:xlink="http://www.w3.org/1999/xlink" width="753" height="571"><defs><path id="a" d="M2758.68 2911.167c96.495-8.748 178.57 9.751 237.193 67.555 29.62 28.574 54.252 66.57 72.484 111.084 17.972 44.257 29.546 95.031 27.055 143.26-2.477 48.348-14.363 92.729-38.318 127.45-23.667 35.04-59.404 60.42-102.843 78.246-87.942 34.446-202.792 43.064-310.616 41.04-53.417-.851-107.836-10.854-153.37-25.72-45.782-14.964-77.107-28.034-106.81-57.528-26.851-28.535-125.771-147.758 142.452-376.795 68.842-54.732 136.244-98.932 232.773-108.592z"/></defs><use fill="#f2744d" xlink:href="#a" transform="translate(-2343 -2909)"/></svg>