<svg xmlns="http://www.w3.org/2000/svg" xmlns:xlink="http://www.w3.org/1999/xlink" width="1094" height="886"><defs><path id="a" d="M1064.878 4193.802c140.293-13.552 259.619 15.11 344.85 104.667 43.064 44.272 78.875 103.142 105.383 172.108 26.13 68.568 42.956 147.235 39.334 221.96-3.6 74.907-20.881 143.668-55.709 197.463-34.409 54.289-86.366 93.612-149.521 121.23-127.857 53.368-294.836 66.721-451.598 63.585-77.662-1.319-156.78-16.817-222.98-39.85-66.563-23.184-112.106-43.433-155.292-89.13-39.036-44.21-182.854-228.928 207.11-583.785 100.088-84.799 198.082-153.28 338.423-168.248z"/></defs><use fill="#f2744d" xlink:href="#a" transform="translate(-461 -4190)"/></svg>