<svg xmlns="http://www.w3.org/2000/svg" viewBox="0 0 12 16" fill="#382c75"><path d="M7.111 2.512a.92.92 0 0 0-.636.257 1.08 1.08 0 0 0-.351.608.742.742 0 0 0 .121.609c.127.171.307.257.541.257s.449-.086.643-.257.313-.374.358-.609a.729.729 0 0 0-.128-.608.652.652 0 0 0-.548-.257zm-.582 8.628c-.198.508-.379.859-.541 1.051-.162.193-.333.29-.514.29s-.286-.073-.317-.218c-.032-.145.002-.345.1-.599L6.705 7.67c.072-.202.133-.412.182-.632.05-.22.059-.419.027-.599a.716.716 0 0 0-.249-.442c-.136-.114-.348-.172-.636-.172-.136 0-.282.021-.44.06-.158.04-.312.108-.46.205-.149.098-.29.236-.425.417a2.643 2.643 0 0 0-.353.681L4 8.154h.257l.19-.487c.181-.456.352-.794.515-1.012.162-.22.347-.33.555-.33.315 0 .378.273.189.817l-1.448 3.993c-.09.237-.157.467-.202.692-.046.224-.05.422-.013.593a.638.638 0 0 0 .27.408c.143.102.36.152.649.152.306 0 .612-.097.919-.291.307-.195.555-.551.744-1.072l.351-.966h-.257l-.19.489z"/><path d="M10 2L8 0H.85A.85.85 0 0 0 0 .85v14.299c0 .47.38.851.85.851h10.3a.85.85 0 0 0 .85-.851V4l-2-2zm1 13H1V1h6.586l1.707 1.707L11 4.414V15z"/></svg>