<svg xmlns="http://www.w3.org/2000/svg" width="20" height="20"><path data-name="Shape 1154 copy" d="M18.519 0H1.475A1.462 1.462 0 0 0 0 1.44v17.12A1.462 1.462 0 0 0 1.475 20h17.044A1.465 1.465 0 0 0 20 18.56V1.44A1.465 1.465 0 0 0 18.519 0zM2.963 7.5h2.969v9.54H2.963V7.5zM4.45 2.75a1.72 1.72 0 1 1-1.723 1.72A1.72 1.72 0 0 1 4.45 2.75M7.793 7.5h2.844v1.3h.041a3.113 3.113 0 0 1 2.8-1.54c3.005 0 3.56 1.98 3.56 4.55v5.23h-2.966V12.4c0-1.11-.02-2.53-1.542-2.53-1.543 0-1.779 1.21-1.779 2.45v4.72H7.788V7.5z" fill="#007bb6" fill-rule="evenodd"/></svg>