<svg id="Layer_1" xmlns="http://www.w3.org/2000/svg" viewBox="0 0 13 16"><style>.st1{fill:#f2f2f2}.st3{fill:#fff}</style><path d="M12.885 4.952c.011 3.714-2.595 8.252-5.81 10.118-3.215 1.866-5.838.363-5.848-3.351-.01-3.714 2.595-8.254 5.81-10.121 3.214-1.865 5.837-.36 5.848 3.354z" fill="#00b4c8"/><path class="st1" d="M11.186 1.209C10.128.591 8.664.676 7.05 1.613l-.132-.078L5.911.947C7.525.01 8.989-.075 10.047.543l1.139.666zM7.199.849l-.007.003-.007.003-.007.003-.008.003-.008.004-.008.003-.008.004-.008.003-.008.004-.008.003-.008.004-.008.003-.007.004-.008.003-.007.003-.008.003.007-.003.007-.003.008-.003.007-.003.008-.003.008-.003.009-.005.008-.003.008-.003.008-.004.008-.003.008-.005.008-.003.007-.003.007-.003.007-.003zm-.125.146L7.073.994 7.071.993 7.069.992 7.067.99 7.065.989 7.063.988 7.06.987 7.058.985 7.056.984 7.054.983 7.052.982 7.05.98 7.048.979 7.045.978 7.044.977 7.042.976l.002.001.002.001.002.001.002.001.002.001.002.001.002.001.002.001.002.003.002.001.002.001.003.001.002.001.002.001.002.001.001.002zm-2.332.951l-.13-.076.129-.107a1480696729594671 1480696729594671 0 0 1 .971.726l-.057-.033.057.033.057.033C4.68 3.439 3.708 4.644 2.947 5.97l-1.14-.666c.757-1.32 1.723-2.519 2.805-3.434l.13.076zm.836.482L5.53 2.4l-.05-.029-.05-.03-.053-.03-.053-.032-.054-.031-.055-.032-.055-.032-.055-.032-.054-.032-.054-.032-.054-.031-.052-.03-.051-.03-.05-.029-.048-.028.048.028.05.029.051.03.052.031.053.031.055.031.055.032.054.032.055.032.055.032.054.031.053.031.053.031.051.03.049.029.048.028zM.115 11.043c.005 1.841.654 3.137 1.698 3.748l1.14.666c-1.044-.61-1.693-1.906-1.698-3.747-.005-1.854.642-3.912 1.692-5.74l-1.14-.666C.757 7.131.11 9.19.115 11.043z"/><path class="st1" d="M5.889 1.571a24.08 24.08 0 0 0-.502-.293c.173-.118.347-.228.524-.331l1.14.666a7.888 7.888 0 0 0-.523.331l-.502-.293.502.293c-.22.15-.435.312-.647.485l-1.14-.666c.211-.173.427-.335.646-.485.127.071.362.209.502.293zm0 .034l.008.005.008.005.009.005.009.005.008.005.009.005.009.005.009.005.009.005.009.005.009.005.009.005.009.005.009.005.008.005.008.005-.009-.003-.008-.005-.008-.005-.009-.005-.009-.005-.009-.005-.009-.006-.009-.005-.009-.005-.009-.006-.009-.005-.008-.005-.009-.005-.009-.005-.008-.005-.008-.005z"/><path d="M5.911.816C7.556-.14 9.05-.227 10.128.403l1.14.666C10.19.439 8.696.526 7.05 1.482 3.78 3.38 1.129 7.997 1.14 11.776c.005 1.877.666 3.199 1.732 3.821l-1.14-.666C.667 14.308.005 12.986 0 11.11-.011 7.331 2.64 2.714 5.911.816z" fill="#dbdbdb"/><path d="M13 4.891c.011 3.777-2.64 8.395-5.911 10.294-3.27 1.898-5.938.368-5.949-3.409C1.129 7.997 3.78 3.38 7.05 1.482c3.271-1.899 5.939-.37 5.95 3.409zM7.089 15.052c3.207-1.862 5.806-6.389 5.796-10.094-.01-3.705-2.627-5.206-5.834-3.345-3.207 1.862-5.806 6.391-5.796 10.096.01 3.705 2.627 5.204 5.834 3.343z"/><path class="st3" d="M6.133 3.41l.018-.003-.026.023zm-.521.463c-.02.006-.029.002-.036-.004-.002-.002-.004 0-.006-.002.012.004.028-.002.042.006zm-.074-.017l-.01.006c.018-.005.031.002.042.006-.007-.008-.012-.019-.032-.012zm-.202-.098v-.005l.004-.002zm.426 1.613l.052.037-.027.015-.04-.057zM4.075 8.992l-.008-.008.025-.1c.037-.021-.015.102-.017.108zm-.012-.082l.011-.007-.013.061zm1.02-5.626l.004-.003-.001.002zm-.364.358c-.002.002-.002 0 .003-.005l.011-.007a.1.1 0 0 1-.014.012zm-.095.168a.101.101 0 0 0-.046.016.53.53 0 0 0-.084.067c.059-.07.118-.137.178-.205-.005.01.004.018.039.018.048-.01.146-.067.179-.035-.029.006-.167.03-.234.069-.019.01-.032.023-.037.037-.005.018-.002.028.005.033zm.205.12l-.022-.055.043-.034c.004-.01-.256.12-.289.092a.025.025 0 0 1 .012-.013c.01-.005.024-.009.04-.017a.184.184 0 0 0 .035-.015c.013-.008.022-.019.019-.033-.003-.021-.011-.034-.023-.04.032-.003.08-.029.092-.03l-.035.063c0 .026.088 0 .19-.038l-.008.008.03.021-.066.097-.018-.006zm.004-.406l-.009.003c-.005.003-.01.004-.006.002a.031.031 0 0 1 .013-.006c.004-.001.004 0 .002.001zm.405.182l-.02.038.02-.038zm.051.001l.007-.007.014-.009-.021.016zm1.058-.302a.593.593 0 0 0 .019-.021l-.012.015a.019.019 0 0 0-.007.006zm-.01.012l-.007.007.012-.014a.03.03 0 0 1-.005.007zm-.549.65l.04-.011v.004l-.004.019-.003.003v.004l-.015.017-.051.047-.008-.026.004-.002.004-.011zm-.141-.007c-.02.012-.035.027-.035.045l.018.02.015-.005.055-.036c.051-.034.051-.047.033-.049l.007-.013-.051.022a.14.14 0 0 0-.042.016zm.39-.135l-.011.016-.011.019.014-.021a.247.247 0 0 0 .008-.014zm.23.203l.005-.016-.001.005-.004.011zm-1.721 4.57l.018-.002.016-.005c.003-.001.003-.002-.002-.003l-.032.01zm.017.049l.012-.024a.263.263 0 0 0 .012-.024l-.005.011-.019.037zm.063-.003l.066-.034-.062.053zm.088-.047l.026-.01.003.01-.003.007-.036.071-.023-.008-.01-.002.01-.01zm.066-.618l.016-.004.019-.004s-.007.002-.015.002l-.02.006zm.009-.035l.008-.018-.008.023a.406.406 0 0 0-.01.019l.01-.024zm.086.131l-.002.003a1.394 1.394 0 0 0-.021.059l.01-.031.013-.031zm.272-1.471l.037-.017.008.004-.015.022-.04.056-.04.032-.004.003V6.8l-.007-.001v-.004l.003-.011.044-.058zm.79-1.439l.018-.028a1.067 1.067 0 0 0-.018.028zm.37-2.383l.088-.047a.243.243 0 0 1-.032.024c-.028.016-.054.022-.056.023zm-.522.092v.008l.01.028-.01-.028-.033.023zm.167.094c.019-.011.034-.007.06-.011l.004-.002.047-.015-.007.004.01.015a.128.128 0 0 1-.052.057.077.077 0 0 1-.098-.012.17.17 0 0 1 .036-.036zm-.216-.039c.031-.019.035.063.056.05 0-.014.014-.028.034-.039.051-.029.141-.05.167-.065l-.003.032-.044.055-.018.019-.015.008-.015.009a.035.035 0 0 1-.011.009.231.231 0 0 1-.127.021c-.049.007-.084-.002-.066-.042.017-.035.031-.052.042-.057zm-.068.207a.523.523 0 0 1 .099-.045c.07-.015.059.008.033.032l-.036.029-.04.036.011.019.04-.031c.006.02-.072.086-.147.13-.075.044-.149.064-.139-.007l.004-.043a.04.04 0 0 1 .013-.013c.015-.009.037-.009.056-.012a.125.125 0 0 0 .057-.013l.017-.012h-.022l-.011-.015.033-.036.032-.019zm-1.44 5.447l-.001.004.004-.005zm1.014-3.918h.001l-.001.001zm.775-.928c.003-.013.016-.018.023-.027l-.002-.001a.052.052 0 0 0-.021.028zm.206.226l-.003.007-.008.004zm-1.151 1.92l-.051.03-.003.001h.002l.064-.025zM3.592 9.15l.033.006v.005zm2.352-5.226c-.003.002.006.01.016.017a.028.028 0 0 0 .01.009l.004.003a.008.008 0 0 0 .004.001c.002-.001-.001-.007-.015-.023a.508.508 0 0 0-.019-.007zm.04-.014l-.003-.01.007.007zm.087.055a.225.225 0 0 1 .024-.009h.008c-.002.002-.011.004-.019.007-.009.002-.016.004-.013.002z"/><path class="st3" d="M6.358 3.397l-.003.002-.008.006-.005.005-.004.007-.003.007c.04-.029.035-.034.023-.027zM4.112 14.18c.028-.016.056-.001.04.044.016-.015.035-.046.053-.056.01-.006.021-.005.031.011l.008.016-.019.015-.055.054-.037-.013a.092.092 0 0 1-.033.032c-.033.019-.068.011-.044-.034l.051-.017-.023-.025a.079.079 0 0 1 .028-.027zm.451-6.105l.094-.029.008.008-.069.061-.041.007zm.267.31l-.025.04-.026.049.004.001v.013l.019-.036.029-.059-.004.002zm1.12-3.172l.006.008a.202.202 0 0 1 .008.023l-.008-.015c-.002-.009-.006-.016-.006-.016zm.251.005c-.01.008-.01.031-.007.029.002-.001.004-.009.007-.029z"/><path class="st3" d="M6.387 5.08l.057-.054-.054.081.04-.027c.006.025-.062.129-.084.142-.009.005-.01-.003 0-.034l-.04.032.044-.089c-.003.002-.076.08-.112.101-.014.008-.022.006-.016-.014l.055-.049-.215.032c.015-.062.278-.293.361-.377l-.117.138.073-.034-.037.047.106-.011.005.015-.033.047-.033.054zm-.199-2.278a.087.087 0 0 1 .046-.013.096.096 0 0 1 .025-.027c.011-.007.015.006.001.054l-.048.045h.052c-.009.006-.016.013-.023.016-.03.017-.048.009-.083.019l.011-.015-.04-.006a.129.129 0 0 1 .059-.073zm.035-.091l-.004.04.004-.036.01.022a.27.27 0 0 1-.01-.026zm-.991.988l.006-.002c-.015.026-.022.036-.026.038-.004.002-.003-.004.001-.01a.05.05 0 0 1 .019-.026zm-.113-.474l.052-.013-.109.072zm.424-.238c.002.003.015-.003.033-.013.019-.011.042-.026.066-.039l.026-.015h.052l-.084.07-.103.045-.055.007.073-.047-.008-.008zM7.05 7.769c-.001.001.003.009.007.016l.004.018-.004-.022-.007-.012zm5.776-3.464zm0 0zm-2.402-1.298l.008-.01v.002c-.002.004-.005.004-.008.008zM9.638 4.77a.088.088 0 0 1 .015-.005c.044-.008.019.07-.021.156-.013.091-.032.188-.079.215a.049.049 0 0 1-.019.007l-.015-.017-.004-.014L9.54 5c.007-.033.013-.056.046-.075l.021-.01c-.034-.015-.016-.116.031-.145zm-.358.328a.08.08 0 0 0-.006.018l-.002.005h-.001.001l-.004.005.006-.014a.038.038 0 0 1 .006-.014zm-.174.123l-.007.03-.002.007.005-.017.004-.02zm2.783-3.112a.057.057 0 0 1 .058.001l.004.019-.08.034v-.004l-.004-.015.003-.002c0-.016.009-.027.019-.033zm-.853-.532l-.013.017-.007.011.01-.012.01-.016zM7.501 5.634l-.012-.002h.015v.004zm.288.796l-.019.037-.001.001.009-.019.011-.019zm1.22-2.578c.018-.01.042.011.06.047.03.025.051.067.033.125 0 .044-.014.085-.054.109a.12.12 0 0 1-.034.013l-.061.015c-.103.056-.131.051-.121-.01l.003-.019a4.11 4.11 0 0 1 .047-.137l.103-.046c0-.06.01-.089.024-.097zm.135.079l-.002.014-.002.013.002-.008c.003-.015.003-.019.002-.019zm.092-1.836l.011-.004-.004.003zm-1.787 3.59l.004.002h-.012zm1.747-3.558l-.004.018.004-.014zm.307 1.196c-.029.037-.047.048-.047.09l.011.002.025-.04.018-.023-.014.017.007-.046z"/><path class="st3" d="M9.271 5.121h.001a.09.09 0 0 1 .024.004l-.001.002c-.003.002-.009.001-.014-.003a.02.02 0 0 1-.01-.003zM8.037 6.329l-.011.023.019-.015-.088.119c.008-.038.04-.104.08-.127zm-.268.102c.003-.002.007-.002.009.002a.148.148 0 0 1-.023.021c-.004.003-.005 0-.003-.006a.091.091 0 0 1 .017-.017zm3.921.474v.004l.018-.006.018-.007-.007.004.022.022-.062-.011zm.375-1.246v.001l.005-.003zm.765.128c-.004.003-.01.007-.016.014-.066.059-.052.034.004.107l.001-.002.011-.119zm-2.67-2.152l.006-.001c.007.011.008.016.007.016-.001.002-.005-.002-.007-.007-.005-.003-.008-.007-.006-.008zM2.767 6.516c.096-.187.181-.38.286-.563-.106.183-.188.375-.286.563zm-.239.398l-.181.43-.066.157.005-.01.071-.169.171-.408zm-.265.618a2.485 2.485 0 0 1-.068.179c.018.085-.012.53-.037.544h-.002c-.059.034-.037-.3-.045-.308-.003-.002-.002-.01.001-.025.021-.088.146-.387.151-.39z"/><path class="st3" d="M12.83 5.787c.023-.013.021.024-.012.12l.012-.12zm0-.003l.016-.011-.007.004c-.003.002-.006.006-.009.007zm-1.888 3.427l.012.099a.65.65 0 0 1-.018.179l-.041.092-.018-.036c.013-.004-.289.871-.474.979-.03.018-.057.014-.079-.015-.054-.077.135-.734.204-.855-.002.006.002.005.011-.001.07-.041.418-.346.305-.317a.043.043 0 0 0 .012-.005c.019-.011.031-.036.04-.059.009-.023.019-.046.036-.057a.069.069 0 0 0 .01-.004zM9.109 5.257l.004-.001h.004zm2.061-3.702l.015-.004.043-.017.015.004.004-.002-.004.002-.003.007-.008.004-.04.01-.015-.004z"/><path class="st3" d="M12.636 3.233c.217.73.282 1.597.192 2.538-.08.047-.14-.119-.161-.148-.058-.071-.19.051-.278.047-.098.058-.166.028-.219-.012-.053-.037-.092-.084-.132-.061-.007.005-.015.01-.022.02a.12.12 0 0 1-.035.033c-.111.065-.232-.257-.258-.257a.087.087 0 0 0-.042.012c-.111.065.053.401.049.403l.033-.088c.088-.017-.051.191.027.188a.137.137 0 0 0 .031-.013.536.536 0 0 0 .121-.118.551.551 0 0 1 .114-.114c-.013.012.025.086.07.155.049.067.104.131.113.126-.014.079-.141.187-.145.189-.082.066-.31.492-.477.589a.146.146 0 0 1-.056.02.172.172 0 0 0-.07.027c-.052.03-.114.083-.175.133a1.292 1.292 0 0 1-.166.127.272.272 0 0 1-.06.026l-.234-1.378-.058.14c-.04.006-.059-.131-.066-.169-.091.243.14.548.122.758-.02.236.277.61.161.765.098-.002.515-.142.504-.077-.03.184-.619 1.223-.858 1.361a.09.09 0 0 1-.031.013.14.14 0 0 0-.034.013c-.18.105-.163.743-.176.804-.093.46-.371.659-.539.971-.032.341-.657 1.212-1.026 1.426-.13.076-.229.071-.258-.071-.041-.226.07-.81-.01-1.055-.122-.376.242-.731.217-1.088-.009-.159-.124-.761-.003-.912.196-.244-.214-.383-.294-.353-.293.115-.713.507-.852.162-.093-.154-.133-.376-.199-.503-.041-.065.224-.836.268-.933.087-.169.204-.333.31-.488.057-.081.334-.503.386-.55.157-.143.276-.242.417-.324a1.75 1.75 0 0 1 .225-.108c.092-.041.548-.246.57-.184.015.047-.152.327-.087.313.128-.032.228.202.371.166.019-.008.042-.026.073-.047.029-.021.065-.045.106-.069.092-.053.203-.098.281-.058.07.033.22-.01.361-.093.213-.124.414-.336.308-.506-.023.01-.045.029-.073.045-.121.07-.355.089-.355.051l-.066.093c-.03 0 .062-.07-.007-.068l.04-.04-.048.036.022-.047c-.036-.021-.041-.044 0-.067l-.078-.002.058-.101c-.008.015-.018.029-.026.033-.009.005-.015 0-.017-.021l.069-.126c.01-.085-.201.046-.223.05l.081.189-.044-.003v.058l-.044.009c-.029.052-.007.025-.029.102-.018-.007-.132-.029-.136-.074.026-.037.034-.045.044-.05a.11.11 0 0 1 .077-.011c-.113-.121-.279-.46-.312-.5-.003.003-.016-.009-.033-.023-.019-.008-.043-.015-.062-.004-.019.011-.035.038-.044.096-.022.173.224.212.249.333l-.044-.032c.001.053-.158.246-.161.247a.23.23 0 0 1-.066.062c-.034.02-.061.016-.073.006-.009-.012-.004-.034.027-.052a.213.213 0 0 1 .044-.017.281.281 0 0 0 .07-.025c.089-.051.043-.144-.027-.22a.628.628 0 0 0-.175-.136c.024-.113-.061-.103-.174-.037-.194.112-.477.389-.473.498.003.111-.058.184-.142.233-.144.084-.355.093-.413.097.061-.284.088-.515.268-.619a.435.435 0 0 1 .107-.043.583.583 0 0 0 .165-.058c.21-.122-.023-.311-.022-.386.003.01.027 0 .059-.018.085-.048.22-.161.141-.15l.653-.502c0-.003.051-.315.114-.351.014-.008.028-.004.043.02.01.017-.127.356-.071.323a.53.53 0 0 0 .079-.04c.058-.034.128-.074.091-.002l.325-.164c-.062.002.23-.223.238-.226l.025-.099-.128.065-.004-.039c.01-.035.048-.067.098-.097.106-.062.266-.108.315-.135-.128.011-.343.111-.398.029-.044-.076.065-.233.153-.317-.019.01-.038.02-.059.033a.844.844 0 0 0-.239.214c.034-.014-.139.443-.139.447l.028-.026c-.017.068-.295.282-.323.297l-.028-.015c.054-.176.065-.115.065-.393a.257.257 0 0 1-.097.124c-.067.039-.13 0-.13-.05-.017-.098.048-.329.152-.39a.086.086 0 0 1 .03-.012.231.231 0 0 0 .067-.023.226.226 0 0 0 .086-.108c.025-.048.229-.188.251-.311l-.106.065.05-.055a.482.482 0 0 1 .091-.083c.025-.014.044-.013.044.021.014-.019.03-.062.042-.069.007-.004.012.003.016.03a.444.444 0 0 1 .084-.112c.013-.007.017.003.004.048.028-.029.043-.045.059-.055a.146.146 0 0 1 .061-.015l-.032-.024.106-.011.091-.07-.051.081a.266.266 0 0 0 .043-.019c.018-.011.024-.021.026-.03.019-.002.047-.048.069-.061.01-.006.02-.004.026.01l-.032.044c.003.002.143-.087.135-.019l-.072.055c.153.012.225-.021.417.02.111.015.12.034.082.056-.075.043-.334.094-.376.118.038.042.101.231.207.169l.006-.027-.056-.034c.035-.025.061-.017.084-.007.024.007.05.014.071.002a.049.049 0 0 0 .019-.021l-.028-.052a.131.131 0 0 1 .063-.072c.056-.033.128-.035.145-.021l-.022-.186c.058.008.09.007.142.032l-.076.044c0 .045.042.033.097.001.044-.026.096-.064.144-.099a1.67 1.67 0 0 1 .116-.088c.232.302.406.663.534 1.075.003.008.005.017.009.025l.008.026zm-4.75 2.782l.003-.002a.089.089 0 0 1-.024.012.141.141 0 0 1 .021-.01zm1.506-3.413a.096.096 0 0 1 .021-.014l.007-.005-.015.01-.013.009z"/><path class="st3" d="M10.425 3.323l.018.006-.01.024-.008.013-.058.081-.008-.005zM9.23 5.125l.004.002.021.008-.029.047-.021.008-.019-.023zm1.812-3.471c.012-.007.025-.011.029-.008.006 0 .007.002 0 .006a.048.048 0 0 1-.014.006l-.033.012c.004-.006.011-.011.018-.016zm-.116.181l-.012.017a.092.092 0 0 1-.013.016l.02-.029a.058.058 0 0 0 .005-.004zm-.02.004l.004-.004-.012.01.008-.006zm.084-.142l-.01-.015h.002zm-.01-.019l.004.002-.002.002zm-.691.93l-.002.001.004-.003zM7.112 7.766c0 .004 0 .008-.002.013l.002-.004a1.63 1.63 0 0 0 0-.009zm-2.251.562a.12.12 0 0 0-.016.024.08.08 0 0 1-.01.017l.013-.019.013-.022zm-.02-.017c-.007.027-.008.036-.006.034.003-.002.016-.036.006-.034zm.017-.06l-.006.015-.025.051.013-.032.018-.034zm-.033.001a.107.107 0 0 1 .02-.007c.005.001.005.002.003.003a.062.062 0 0 1-.014.004h-.009zm1.089 1.533c.288-.112-.313.765-.33.856-.069.162-.124.427-.178.588a.484.484 0 0 1-.23.287l-.04.022a.537.537 0 0 0-.145.106c-.113.125-.279.687-.364.736-.088.136-.279.35-.378.407-.044.025-.071.02-.061-.038-.047.242.145.211-.069.335-.04.023-.095.052-.168.089l-.004.137c.024.03.014.051-.01.065-.05.029-.159.025-.139.005-.077.088.109.11.081.157a.066.066 0 0 1-.017.019c-.011.006-.018-.005-.023-.016-.005-.016-.011-.028-.019-.023-.003.002-.007.005-.011.015.008-.005.008.048.001.106-.01.052-.026.111-.047.123a.12.12 0 0 0-.043.012c-.07.04.073.195.069.217-.032.251-.269.498.096.527l-.11.094.023.033-.052-.028c0-.038-.406.011-.388-.113l.04-.024.003-.019c0-.017-.257-.253-.044-.404v-.097l-.103.076.057-.279.029.055.029-.266-.015.004-.051.169c-.036.008-.015-.127.015-.145-.098-.053.129-1.418.238-1.613.291-.495-.188-.533-.229-.784-.064-.415-.152-.588-.029-1.002a.136.136 0 0 1-.03.037c-.022.013.04-.139.114-.297.076-.161.169-.33.2-.348.006-.004.01-.002.01.006a5.058 5.058 0 0 1 .033-.412c.044.008.081.012.091.015-.023 0 .257-.403.39-.481.031-.018.054-.019.063.007l-.066.135.123-.149c.014.023.281.105.404.076.015.042.051.101.059.123.033.053.179-.041.103.155a.055.055 0 0 1 .019-.018c.088-.051.3.143.348.131.123-.017.008.536-.003.571a.372.372 0 0 1 .119-.144c.063-.036.113-.003.176-.015l-.002.125a.718.718 0 0 0 .215-.037c.143-.074.125.181.25.131zm-1.839-.793c.003-.006.054-.129.018-.108l-.025.1.007.008zm-.012-.082l.011-.006-.013.06.002-.054zm.174-.886c.081-.039.179-.058.231-.016.044.008.069.032.036.081l-.055.023a.791.791 0 0 1-.15.099l-.175-.033a.039.039 0 0 1 .021-.029.226.226 0 0 1 .085-.02l.007-.105zm.025-.112c-.002.006.024-.003.03-.006.004-.003-.001-.003-.03.006zm-.31.289l-.058.047.018.02.022.008.081-.03c.028-.043-.023-.051-.063-.045zm2.32-4.089l.002-.007.004-.012a.063.063 0 0 1-.006.019zm.822-1.476c0-.006.005-.013.011-.019v.022l-.011-.003zM4.105 7.623l.025.015-.011.07-.011.002v.007l-.007-.02-.019-.032zm-.366.33a.214.214 0 0 1-.025.058c-.003.002.003-.014.025-.058zm2.578-4.468l.025-.007.008-.003.007.003.011.007c.006.02-.059.069-.105.097a.18.18 0 0 1-.03.016l.043-.076.011-.01.03-.027zm-.117.034c-.004.006.02-.005.033-.013.012-.007.014-.01-.033.013z"/><path class="st3" d="M3.744 7.881a.226.226 0 0 1 .188-.028c.153-.017.293.024.283.14l-.135.063-.04.01-.062.02.051-.08c0-.063-.235-.03-.238-.082l.029-.029-.216.107a.56.56 0 0 1 .14-.121zm2.19-3.93a.102.102 0 0 1 .036-.001l.004.003v.001c-.034 0-.043-.001-.04-.003zm1.17-1.206c-.02-.004-.031-.017-.022-.044l.022-.01v.054zm0-.106l.078.018-.078.034zm2.08.994l.01-.007c-.024.021-.044.039-.06.049l.022-.029a.24.24 0 0 0 .028-.013z"/><path class="st3" d="M9.453 3.984c.012.04-.065.097-.08.123l.036.008c-.002.011-.02.027-.048.043-.05.03-.132.063-.207.093-.075.033-.141.056-.155.064l.184-.157-.114.002.081-.097-.033-.036.055-.076a.027.027 0 0 0 .011-.005l-.011.004.065-.09-.088.03.04-.085-.065.062.033-.073-.052.042.069-.091-.047.052.037-.089-.059.077.025-.103a.27.27 0 0 1-.042.051c-.008.004-.007-.01.009-.054l.012-.019-.01.002a.065.065 0 0 0 .013-.004l.037-.046.051-.042c.017.018.016.034.005.047.064-.06.14-.141.172-.159.001-.002.003-.002.006-.003l.018.011-.118.155a.186.186 0 0 1 .038.06l.026.052a.655.655 0 0 1 .052.198l.051.038.003.015zm-.319-.309c.016-.01.036-.028.06-.049l-.01.007a.175.175 0 0 1-.028.013l-.022.029zm.124-.418c.051-.021.025.032 0 .063l-.019.028-.003-.002.007-.076.015-.013zm-1.772-.146l.029-.036-.066.015zm.084-.1l-.015.029c-.069.024-.062-.031-.062-.04l-.015-.008.043-.038c-.017.053-.002.087.049.057z"/><path class="st3" d="M9.272 1.883l.304-.037a.133.133 0 0 1-.058.054c-.036.02-.085.041-.132.061a.839.839 0 0 0-.125.053c-.022.014-.037.026-.04.039l.022.016-.03.013c-.015.008-.033.016-.049.026a.182.182 0 0 0-.086.091.132.132 0 0 0 .029-.021l.037-.025c.026-.015.049-.021.045.02l-.055.015c.014.037.073-.039.069.019l-.054.082a.09.09 0 0 0-.019-.027c-.015-.014-.034-.024-.045-.018-.006.004-.01.011-.01.023l-.003.012c-.008.025.087.033-.026.112l.048.006-.113.065.022.004a.279.279 0 0 1-.025.017c-.038.023-.069.026-.118.054l.055.014c0 .032-.012.05-.03.061a.102.102 0 0 1-.076.005c.05.058.035.091-.007.115-.022.013-.052.023-.083.035-.033.014-.07.027-.099.044.054-.006.124-.025.179-.032.002.012-.037.041-.095.075-.139.08-.385.189-.417.159-.003.006-.095.089-.215.201-.274.26-.708.677-.672.691l-.014-.013-.004.01a.328.328 0 0 1-.169-.211c-.026-.082-.015-.186.076-.315-.051.01.018-.073.091-.153-.029-.017.022-.17.065-.216h-.036l.069-.095h-.03l.044-.038-.018.002.033-.036c-.062.028-.015-.051.018-.091-.011-.027-.014-.025-.014-.025-.004.002 0 0 .007-.03.01-.07-.297.083-.26.011l-.009.007c-.031.017-.105.042-.145.033v-.054l.077-.035-.077-.017v-.022a.094.094 0 0 1 .026-.02c.039-.023.107-.043.175-.063a.887.887 0 0 0 .174-.064c.028-.016.046-.034.049-.056l-.084.011c.002-.012.013-.023.029-.033a.655.655 0 0 1 .19-.053l.007-.004-.007-.025a.103.103 0 0 1 .034-.03c.105-.061.387-.116.349-.083l.154-.042-.029-.026a.061.061 0 0 1 .019-.017c.054-.031.158.016.193-.005 0-.038-.106.036-.091-.031-.004.028.584-.209.577-.162l-.058.043c.007.004.468-.171.45-.088l-.169.072c.004.014.176-.073.103.007a.031.031 0 0 0 .031 0c.026-.014.043-.063.046-.065zM7.555 3.04l.015-.029c-.051.03-.066-.004-.048-.057l-.044.038.015.008c0 .009-.007.064.062.04zm1.232-.445l-.026-.027.073-.016-.047.043zm-1.301.516l-.037-.021.066-.014-.029.035zm-1.117-.463a.432.432 0 0 1 .092-.037l.014-.004c.132-.064.202-.011.293-.039-.081-.004-.088-.013-.147-.033.15-.069.316-.142.483-.201v.249a1.257 1.257 0 0 0-.123.094l-.085.028-.102.063a.17.17 0 0 1-.064.064c-.051.029-.117.039-.185.051a.591.591 0 0 0-.206.061.328.328 0 0 0-.053.039c.132-.046.259-.078.362-.058a.232.232 0 0 0-.023.014c-.158.091-.262.111-.419.154v-.008l.03-.038-.147.046c.004-.049.062-.07.08-.114-.058.005-.081.005-.106-.036.109-.008.208-.036.307-.072a.648.648 0 0 1-.06.013l.013-.002.047-.011c.051-.017.106-.045.164-.074a.259.259 0 0 1-.132-.021c-.062.002-.102-.009-.076-.053-.01-.023-.002-.048.043-.075zm-.767.52l.048-.006a.75.75 0 0 0-.048.006zm-.003.007c.002-.001.013.003.022.009.009.004.015.009.015.01 0 0-.009-.002-.029-.01-.007-.006-.009-.009-.008-.009zm-.472.041a1.6 1.6 0 0 1 .15-.119 3 3 0 0 0-.082.079l.001-.004-.069.044z"/><path class="st3" d="M5.31 3.071c.036-.021.064-.028.07-.006l-.089.086c.109-.022.129.036.208-.01a.529.529 0 0 0 .095-.077l-.047.056.08-.026.015.022c-.006.026-.032.049-.068.07-.066.039-.17.069-.257.093-.091.02-.161.032-.165.033a.028.028 0 0 1 .012-.014.143.143 0 0 1 .054-.012.124.124 0 0 0 .055-.013.05.05 0 0 0 .025-.034.186.186 0 0 1-.03.021c-.019.012-.025.006-.013-.034l-.171.058.105-.062.008-.051-.07.045a1.32 1.32 0 0 1 .183-.145zm-.469 5.114a.019.019 0 0 0 .007-.006l.005-.005c-.003.003-.007.008-.012.011zm-.004.005c-.006.006-.011.012-.016.015l.02-.02a.022.022 0 0 1-.004.005zm2.079-4.725a.342.342 0 0 1-.104.089.49.49 0 0 1-.251.072l.07.095h-.028V3.8l-.03-.011-.05.121c-.045.01-.059-.1-.117-.088 0 .008.07.125.032.146-.075.02-.317-.201-.398-.158.01-.014.017-.03.031-.038a.34.34 0 0 1 .108-.033c.033-.006.068-.012.093-.027l.016-.011c.025-.112.135-.1.175-.233l-.023-.012c-.001.003-.036.074-.057.085-.007.005-.012 0-.011-.025l.044-.038.01-.035-.087.012.065-.047-.062-.086c0 .036-.023.062-.054.079a.472.472 0 0 1-.158.044c.036.143-.245.256-.291.317l.003.053c-.044.009-.012-.074-.078-.048l-.014.08.041-.07.03.143c.004 0 .09-.018.05.026l-.284.115c-.037-.034.127-.091-.049-.023.062-.07.135-.15.208-.234-.116.066-.203.163-.297.218a.269.269 0 0 1-.189.038c.012.04.088-.013.099.023 0-.004-.005-.002-.014.004-.084.048-.497.445-.47.472l.063-.006-.074.152c.04-.011.307-.002.241.092.047-.026.111-.044.137-.03-.014.007-.03.085-.042.169l.008.021-.015.025c-.009.09-.014.171-.004.165.004-.001.011-.017.019-.051.219-.334.384-.591.58-.873.009-.008.169-.163.283-.229l.027-.016c.055-.027.088-.02.066.055l-.036.036.084.006c-.055.03-.069.203-.069.208-.005.026.009.025.033.011a1.87 1.87 0 0 0 .259-.24c.044.03-.05.326-.08.36.04.011 0 .08.023.092l.091-.024.022.05-.054.037c.076-.012.021.203-.116.282a.227.227 0 0 1-.074.028c-.109.063-.212.109-.311.158l.04.015c.048.014.048.026.03.042l-.07.015-.043-.051c-.032.017-.064.034-.096.053a1.626 1.626 0 0 0-.378.299c.035-.03.235-.188.357-.258.066-.039.11-.051.088-.001-.043.028-.076.072-.113.093a.082.082 0 0 1-.055.013l.113-.016-.059.106.015-.013.025-.018c-.002.006.045.031.081.021l-.028.012.028.008.103-.081c.043-.011-.136.184-.243.247-.021.012-.039.02-.052.019-.009.008-.085.117-.124.14-.013.007-.022.005-.023-.013-.003-.121.183-.162.183-.199l-.058.021.05-.051-.318.227.026-.04c-.055.066-.193.155-.219.229l.004.048.036-.047c.042-.007-.043.088-.073.105-.007-.027-.013-.029-.033-.017-.014.007-.033.021-.058.038-.005-.003-.013.001-.021.005a.2.2 0 0 0-.031.025c-.031.03-.067.078-.101.122-.046.057-.083.112-.093.118l-.005-.052c-.004.013-.091.211-.123.23l.093-.23c-.087.049-.128.299-.153.321-.048.048-.1.186-.224.258-.006.003-.013.006-.02.011-.111.064-.199.267-.27.461-.072.188-.13.373-.171.396-.055.013-.008-.23-.001-.251.164-.15-.179-.187-.232-.156l.015-.039-.152.16-.014-.017c.001.012-.004.02-.015.027-.027.015-.084.018-.138.021a.923.923 0 0 0-.11.004c0-.014-.005-.018-.013-.014-.037.021-.152.233-.254.439a4.69 4.69 0 0 0-.18.398c-.005.201.18.211.278.154.035-.02.058-.048.058-.079.002-.055.129-.187.209-.234.066-.039.1-.018.007.15-.074.127-.121.268-.201.391.088.025.509-.114.206.27-.135.166.041.246.176.278-.05.034-.148.138-.183.158l-.014-.035.037-.038c-.009-.018-.02-.017-.032-.011a.167.167 0 0 0-.031.029l-.017.025c-.147.033-.061-.465-.149-.448-.073.017-.234.039-.252-.052-.045-.207-.249-.008-.366-.088-.279-.197-.24-.643-.357-.959-.004-.01.091-.251.054-.23a13.95 13.95 0 0 1 1.641-2.885c.013-.016.038-.053.073-.102.119-.166.341-.474.498-.621a.53.53 0 0 1 .084-.067.101.101 0 0 1 .046-.016c-.007-.005-.01-.015-.005-.033.005-.014.018-.027.037-.037.067-.039.205-.063.234-.069-.033-.032-.131.025-.179.035-.035 0-.044-.008-.039-.018a.06.06 0 0 1 .021-.023c.017-.015.041-.03.047-.039a.37.37 0 0 0 .067-.03.668.668 0 0 0 .123-.097c.034-.034.061-.065.086-.079.033-.02.065-.014.105.039l.06-.051c.081-.021.019.062.004.103.093-.071.108-.107.154-.134.012-.007.026-.011.044-.019.001-.028.01-.043.023-.05.016-.008.035-.006.054-.002.015.002.03.005.037.002 0 .019-.201.178-.212.235l.08.037c-.004.025-.017.041-.03.048-.019.012-.041.007-.043-.009l-.025.023-.04.018a3.67 3.67 0 0 1-.195.089c.045.004.07.018.027.047a.275.275 0 0 0 .224-.035.428.428 0 0 0 .108-.09l-.055.002c.001-.015.021-.032.048-.048.073-.042.203-.076.183-.038l-.161.105.051.003-.069.079.015.005.135-.147.092-.061-.012-.015c-.007 0-.091.027-.058-.034.003-.004.283-.306.442-.398.06-.034.103-.04.105.013a1.004 1.004 0 0 1-.099.062 2.767 2.767 0 0 0-.091.049.427.427 0 0 0-.136.107c.074.046-.032.133-.072.177.003.007.105-.057.087.009.008.008.009.042-.039.124l.011.036.108-.11-.017.036.142-.112-.022.017c-.024.014.071-.08.125-.119-.069.016-.194.041-.187-.014l.106-.04-.095.008c.009-.064.14-.167.246-.229.076-.044.141-.068.142-.041 0 .024-.191.122-.187.179l.022.034.025-.019-.032-.023c.014-.04.087-.095.16-.137.081-.048.163-.079.158-.057l-.08.122.174-.088c-.018-.023-.113.079-.098-.017.002-.009.011-.018.025-.025.046-.027.138-.042.11.043.019.049.058 0 .051.093a.07.07 0 0 1 .025-.023c.052-.03.146-.018.151.017l-.04.053.051.012-.04.015.04.019-.116.077.201.093zm-2.069.471l.066-.097-.03-.021.007-.008c-.102.038-.19.064-.19.038l.036-.063c-.012.002-.06.027-.092.03.011.006.019.019.023.04.003.014-.006.025-.019.032a.184.184 0 0 1-.035.015c-.016.008-.03.012-.04.017a.025.025 0 0 0-.012.013c.033.028.293-.101.289-.091l-.043.034.022.055.018.006zm.915 1.435l.051.038-.026.014-.04-.057.015.005zm-.046-1.732c-.007-.038.007-.056.024-.066.009-.005.019-.008.028-.011l-.052.077zm-.14.23c-.002-.002-.004 0-.006-.002.012.004.028-.003.041.005-.019.007-.028.003-.035-.003zm.549-.439l.008-.02.018-.002-.026.022zm-.609.43c.006-.003.007.003.011.002v.001l-.011-.003zm-.18-.102v-.005l.004-.002-.004.007zm1.761 3.987c0 .029.007.036.011.034.005-.003.008-.023-.011-.034zm.083-.158a.137.137 0 0 1-.009.036l.009-.036zm.625-1.116a.051.051 0 0 0-.008.018.118.118 0 0 0-.01.016l.018-.033v-.001zm-.083.057l.026-.019-.015.009c-.007.006-.013.01-.011.01zm1.423-2.569l.023-.008h.005l.01-.003-.011.004a.274.274 0 0 0-.022.006l-.005.001zM7.923 6.07c-.013.012-.017.014-.015.014l.015-.01c.011-.011.018-.014 0-.004zm3.089-4.462a.115.115 0 0 1-.052.053.444.444 0 0 1-.203.049l.153.05c-.003.014-.016.026-.034.036a.386.386 0 0 1-.137.039c-.008-.038-.031-.038-.06-.021-.023.013-.048.037-.075.061a.506.506 0 0 1-.076.06c-.038.022-.066.017-.07-.056l.069-.057-.062.011c-.04.015-.08.03-.095.017v-.045l.003-.044.136-.032-.03.025.106-.011c-.01-.017-.009-.027 0-.032.012-.007.041-.005.07-.004.025.003.049.007.061.001.002-.002.004-.002.005-.005l-.066-.016.011-.024.346-.055zM7.583 5.666l.012.022-.006-.007-.006-.015zm-.167.025l.022-.005.003.001-.032.009zm1.732-3.396l.001-.006-.004.006zm.009.036l.014.004.003.003-.054.039-.004.003-.018-.007.055-.04zm.061-.171a.066.066 0 0 0 .023.002.17.17 0 0 0-.023-.002zm.024-.018c-.017.004-.023.004-.023.006h.012l.015-.006h-.004zm-.013-.058l-.004.009-.021.027a.713.713 0 0 1 .025-.036zM8.61 3.118c.041-.024.083-.029.084.039.004-.016.05-.049.107-.082.086-.05.195-.097.228-.078l-.035.033c.102-.021.062.032-.004.091a1.007 1.007 0 0 1-.17.134l-.016.008-.003.002-.011.006a.038.038 0 0 1-.016.014.38.38 0 0 1-.131.029c-.04.011-.077.015-.085.003l.059-.068-.008-.026c-.006 0-.109.055-.069.002l.096-.055-.106.024c0-.01.039-.052.08-.076zm.151-.55l.073-.016-.047.043z"/><path class="st3" d="M6.499 3.946l-.012.028a.24.24 0 0 0-.013.027l.013-.027.012-.028zm-.017-.009l.005-.001a.357.357 0 0 1-.038.048c-.004.001.001-.008.008-.019a.098.098 0 0 1 .025-.028zm-.215.151c.007-.003-.007.005-.022.017a.427.427 0 0 1 .022-.017zM5.021 6.013a.162.162 0 0 1 .031-.025c.007-.004.015-.008.02-.005l-.051.03zm2.083-3.679c.259-.092.516-.149.705-.104-.061.023-.12.044-.186.065l.015.004c-.157.087-.318.164-.471.245a.718.718 0 0 0-.063.039v-.249zM6.2 3.54a.284.284 0 0 1 .036-.017L6.2 3.54zm.139-.161l-.041.053-.069.053.007-.012-.01-.003.065-.059zm-.599.194c.009-.005.019-.008.028-.011l-.052.077c-.007-.038.007-.056.024-.066zm-.224.287l.011.002v-.001c-.004.002-.005-.003-.011-.001zm.4-1.021l.074-.022a.237.237 0 0 1 .041-.033c.03-.018.058-.016.068.036l-.015.056c-.066.029-.099.028-.12.011l-.036-.005.011-.011-.023-.032zm-.554.289c-.013.008-.012.011-.005.009.006.002.016-.001.027-.007a.084.084 0 0 0 .024-.022.332.332 0 0 0-.046.02zm-.009-.019l.036-.003.013-.001-.024.003-.025.001zm-.158.067l-.006.046-.102.059.047-.046.036-.024-.016.005.041-.04z"/><path class="st3" d="M5.119 3.225l-.057.059.072-.048c.006-.008.013-.013.02-.02l-.035.009zm-.301.304l.013-.006c.003 0 .003.001.002.001-.002.002-.005.003-.009.003-.005.003-.009.004-.006.002zM2.286 7.491l.003-.006-.007.016-.001.001.067-.157a.387.387 0 0 0-.025.059 1.638 1.638 0 0 0-.037.087zm1.637-2.875c.013-.016.038-.053.073-.102-.112.149-.206.316-.313.471.083-.121.153-.252.24-.369z"/><path class="st3" d="M2.767 6.516c-.166.32-.34.641-.479.969l.034-.082.034-.08c.121-.276.272-.539.411-.807z"/></svg>