<svg id="Layer_1" xmlns="http://www.w3.org/2000/svg" viewBox="0 0 16 13"><style>.st0{fill:#fafafa}.st1{fill:#eee}.st2{fill:#ef5350}.st3{fill:#bdbdbd}.st4{fill:#4dd0e1}.st5{fill:#4e352e}.st6{fill:#fbcbbd}.st7{fill:#f8aa92}.st8{fill:#ef9a9b}.st9{fill:#f58967}.st10{fill:#212121}.st11{fill:#424242}</style><path class="st0" d="M12.391 4.228v2.208L16 5.309V3.121z"/><path class="st1" d="M16 3.121l-3.609 1.107v-.232L16 2.891z"/><path class="st2" d="M12.683 4.14l-.292.088v-.232l.292-.088z"/><path class="st3" d="M14.545 4.469l-.572.177v.093l.572-.177zm.608-.189l-.505.157v.093l.505-.157zm.102-.031v.092l.337-.105v-.092zm-1.083.527l-.199.061v.093l.199-.061zm.102.061l.534-.166v-.092l-.534.165zm.636-.198l.367-.114v-.092l-.367.114zm.469-.146l.213-.066v-.093l-.213.067zm-.571-.467l-.835.258v.25l.835-.258zm-.446.882l-.389.121v.093l.389-.121zm.102.061l.761-.237v-.093l-.761.238zm.864-.269l.264-.083v-.092l-.264.082zm-1.355.613l.554-.172v-.093l-.554.172zm.657-.204l.488-.152v-.093l-.488.152z"/><path class="st4" d="M13.732 4.879c0 .281-.206.572-.46.651-.254.078-.46-.087-.46-.368 0-.282.206-.573.46-.65.254-.079.46.086.46.367z"/><path class="st5" d="M13.272 4.691a.34.34 0 0 0-.22.31v.187c0 .134.098.213.22.176a.34.34 0 0 0 .22-.311v-.186c-.001-.134-.099-.213-.22-.176z"/><path class="st6" d="M13.319 5.258l-.095.029v-.138l.095-.03z"/><path class="st7" d="M13.224 5.23a.206.206 0 0 0 .096-.029v-.078l-.096.029v.078z"/><path class="st6" d="M13.418 4.902c0 .027.02.042.044.035.024-.007.044-.035.044-.062 0-.027-.02-.042-.044-.035a.069.069 0 0 0-.044.062z"/><path class="st7" d="M13.437 4.896c0 .015.011.024.024.02.013-.004.024-.02.024-.035 0-.015-.011-.024-.024-.02a.04.04 0 0 0-.024.035z"/><path class="st6" d="M13.125 4.992c0 .027-.02.054-.044.062-.024.007-.044-.008-.044-.035s.02-.054.044-.062c.025-.007.044.008.044.035z"/><path class="st7" d="M13.106 4.998a.04.04 0 0 1-.024.035c-.013.004-.024-.005-.024-.02a.04.04 0 0 1 .024-.035c.013-.004.024.005.024.02z"/><path class="st6" d="M13.272 4.728a.294.294 0 0 0-.19.269v.049c0 .116.085.184.19.152a.294.294 0 0 0 .19-.269V4.88c0-.116-.085-.185-.19-.152z"/><path class="st8" d="M13.37 4.966c0 .01.007.015.016.012a.025.025 0 0 0 .016-.022c0-.01-.007-.015-.016-.012-.009.002-.016.012-.016.022z"/><path class="st9" d="M13.292 5.004c0-.012-.009-.088-.02-.084-.011.003-.02.084-.02.097s.009.02.02.016c.011-.003.02-.016.02-.029z"/><path class="st10" d="M13.205 4.952c0 .019-.014.039-.031.044-.017.005-.031-.006-.031-.025 0-.019.014-.039.031-.044.017-.005.031.006.031.025zm.196-.06c0 .019-.014.039-.031.044-.017.005-.031-.006-.031-.025 0-.019.014-.039.031-.044.017-.005.031.006.031.025z"/><path class="st8" d="M13.174 5.026c0 .01-.007.019-.016.022-.009.003-.016-.003-.016-.012s.007-.019.016-.022c.009-.003.016.002.016.012z"/><path class="st5" d="M13.46 4.764v.09c-.125.039-.189-.075-.189-.075s-.063.153-.189.191v-.09a.362.362 0 0 1 .115-.145l.147-.045a.152.152 0 0 1 .116.074z"/><path class="st6" d="M13.401 5.368l-.244.075v-.148l.244-.075z"/><path class="st2" d="M13.45 5.205v.23a.59.59 0 0 1-.178.095.395.395 0 0 1-.178.015v-.23l.099-.03c.044.035.115.013.159-.049l.098-.031z"/><path class="st5" d="M13.439 5.115l.023-.007v-.297l-.023.007zm-.335.103l-.023.007v-.298l.023-.007z"/><path class="st2" d="M13.187 5.39c0-.057-.042-.091-.093-.075a.145.145 0 0 0-.094.132c0 .057.042.091.093.075a.145.145 0 0 0 .094-.132z"/><path class="st2" d="M13.094 5.418v.127a.296.296 0 0 1-.094-.03v-.068l.094-.029zm.262-.08c0-.057.042-.116.093-.132.052-.016.093.017.093.075a.145.145 0 0 1-.093.132c-.051.015-.093-.018-.093-.075z"/><path class="st2" d="M13.543 5.28v.068a.69.69 0 0 1-.093.087v-.126l.093-.029z"/><path class="st0" d="M12.391 1.312v2.207L16 2.418V.23z"/><path class="st1" d="M16 .23l-3.609 1.082V1.08L16 0z"/><path class="st2" d="M12.683 1.225l-.292.087V1.08l.292-.087z"/><path class="st4" d="M13.732 1.972c0 .281-.206.571-.46.648-.254.076-.46-.09-.46-.372 0-.282.206-.571.46-.647.254-.076.46.09.46.371z"/><path class="st5" d="M13.471 1.853a.152.152 0 0 0-.122-.08.196.196 0 0 0-.078.008.281.281 0 0 0-.078.038.355.355 0 0 0-.149.281v.102a.1.1 0 0 0 .003.025c.01.034.041.052.078.041l.291-.087a.124.124 0 0 0 .081-.115v-.102a.197.197 0 0 0-.026-.111z"/><path class="st6" d="M13.4 2.524l-.258.077v-.156l.258-.077z"/><path class="st2" d="M13.46 2.345v.174a.556.556 0 0 1-.188.101.406.406 0 0 1-.188.013v-.175l.1-.03c.003-.001.005 0 .007.001l.002.001.079.064.079-.112.002-.002.007-.005.1-.03z"/><path class="st6" d="M13.322 2.411l-.101.031v-.159l.101-.03z"/><path class="st7" d="M13.221 2.369a.192.192 0 0 0 .051-.008.28.28 0 0 0 .051-.022v-.083l-.101.03v.083z"/><path class="st6" d="M13.426 2.024c0 .028.021.045.046.037a.07.07 0 0 0 .046-.065c0-.028-.021-.045-.046-.037a.072.072 0 0 0-.046.065z"/><path class="st7" d="M13.447 2.018c0 .016.012.025.026.021.014-.004.026-.021.026-.036 0-.016-.012-.025-.026-.021-.015.004-.026.02-.026.036z"/><path class="st6" d="M13.117 2.117a.072.072 0 0 1-.046.065c-.026.008-.046-.009-.046-.037 0-.028.021-.057.046-.065.025-.008.046.009.046.037z"/><path class="st7" d="M13.096 2.123a.04.04 0 0 1-.026.036c-.014.004-.026-.005-.026-.021a.04.04 0 0 1 .026-.036c.015-.004.026.005.026.021z"/><path class="st6" d="M13.272 1.838c-.111.033-.201.16-.201.283v.052c0 .123.09.196.201.162.111-.033.201-.16.201-.283v-.051c0-.123-.09-.196-.201-.163z"/><path class="st9" d="M13.293 2.131c0-.013-.01-.093-.021-.089-.012.003-.022.089-.022.102 0 .013.01.021.021.017.012-.003.022-.017.022-.03z"/><path class="st10" d="M13.201 2.075c0 .02-.015.041-.033.046-.018.005-.033-.006-.033-.027 0-.02.015-.041.033-.046.018-.005.033.007.033.027zm.207-.062c0 .02-.015.041-.033.046-.018.005-.033-.006-.033-.026 0-.02.015-.041.033-.046.018-.006.033.006.033.026z"/><path class="st5" d="M13.083 2.161c-.007.002-.013-.003-.013-.01v-.086l.026-.008v.086c0 .008-.005.016-.013.018zm.377-.113a.02.02 0 0 0 .013-.018v-.086l-.026.008v.086c0 .008.006.012.013.01z"/><path class="st2" d="M13.559 2.424l-.003.001a.702.702 0 0 1-.154.134.071.071 0 0 1-.029-.028.1.1 0 0 1-.012-.048.152.152 0 0 1 .099-.139c.054-.016.098.018.099.077v.003z"/><path class="st2" d="M13.556 2.425a.702.702 0 0 1-.096.093v-.064l.096-.029z"/><path class="st5" d="M13.096 2.057s.098-.045.098-.114c0 0 .005.083.253.009l.026-.008-.046-.09-.092-.06-.126.045-.083.083-.056.082v.06l.026-.007z"/><path class="st2" d="M13.182 2.538a.151.151 0 0 1-.041.1.317.317 0 0 1-.154-.042l-.003.001v-.002a.151.151 0 0 1 .099-.137.074.074 0 0 1 .059.004c.025.013.04.04.04.076z"/><path class="st2" d="M13.083 2.568v.064a.317.317 0 0 1-.096-.036l.096-.028z"/><path class="st3" d="M14.341 1.632l-.368.111v.093l.368-.111zm.103.062l.524-.159v-.093l-.524.158zm.627-.284v.094l.53-.162v-.093zm-.539.356l-.559.169v.093l.559-.169zm.103.062l.369-.112v-.093l-.369.112zm.472-.144l.494-.15v-.093l-.494.15zm.017-.653l-1.151.348v.251l1.151-.348zm-.904 1.022l-.247.075v.093l.247-.075zm.103.062l.961-.292v-.094l-.961.293zm1.064-.324l.214-.065v-.093l-.214.065zm-1.414.622l.892-.271v-.093l-.892.271zm.995-.302l.156-.048V1.97l-.156.048z"/><path class="st0" d="M12.391 7.041v2.207L16 8.097V5.909z"/><path class="st1" d="M16 5.909l-3.609 1.132v-.233L16 5.679z"/><path class="st2" d="M12.683 6.95l-.292.091v-.233l.292-.09z"/><path class="st3" d="M14.545 7.267l-.572.181v.092l.572-.18zm.608-.193l-.505.16v.093l.505-.16zm.102-.033v.093l.337-.107v-.093zm-1.083.535l-.199.063v.093l.199-.063zm.102.061l.534-.17v-.092l-.534.169zm.636-.202l.367-.117v-.092l-.367.116zm.469-.15l.213-.068v-.092l-.213.068zm-.571-.463l-.835.263v.251l.835-.264zm-.446.885l-.389.123v.093l.389-.123zm.102.061l.761-.243v-.092l-.761.242zm.864-.276l.264-.084v-.093l-.264.085zm-1.355.623l.554-.176v-.093l-.554.176zm.657-.209l.488-.156v-.092l-.488.155z"/><path class="st4" d="M13.732 7.682c0 .281-.206.574-.46.654-.254.08-.46-.084-.46-.365 0-.282.206-.574.46-.654.254-.079.46.084.46.365z"/><path class="st5" d="M13.272 7.498a.353.353 0 0 0-.226.322v.46c0 .017.012.026.027.022l.398-.125a.043.043 0 0 0 .027-.039v-.461c0-.138-.101-.218-.226-.179z"/><path class="st6" d="M13.179 8.235l-.001.015-.003.019a.167.167 0 0 1-.057.087l-.038-.005a.33.33 0 0 1-.098-.036l-.001-.017c0-.047.027-.095.064-.122a.13.13 0 0 1 .035-.018.081.081 0 0 1 .046-.002c.032.008.053.037.053.079z"/><path class="st6" d="M13.08 8.266v.084a.33.33 0 0 1-.098-.036l-.001-.001v-.016l.099-.031zm.483-.152l-.001.017a.756.756 0 0 1-.136.127.068.068 0 0 1-.056-.051.047.047 0 0 1-.003-.017l-.001-.013a.16.16 0 0 1 .052-.113.12.12 0 0 1 .047-.028c.012-.004.024-.005.034-.004.037.004.064.035.064.082z"/><path class="st6" d="M13.563 8.114v.016l-.001.001a.756.756 0 0 1-.098.098v-.083l.099-.032z"/><path class="st11" d="M13.286 8.216a.023.023 0 0 1-.014.021c-.008.003-.014-.003-.014-.011 0-.009.006-.018.014-.021.008-.002.014.003.014.011z"/><path d="M13.464 8.036v.193a.559.559 0 0 1-.192.107.402.402 0 0 1-.154.019l-.038-.005v-.193l.384-.121z" fill="#9ccc65"/><path class="st6" d="M13.321 8.103l-.099.031v-.129l.099-.031z"/><path class="st7" d="M13.222 8.089a.216.216 0 0 0 .098-.031v-.08l-.099.031v.08z"/><path class="st6" d="M13.423 7.749c0 .028.02.044.045.036.025-.008.045-.037.045-.064s-.02-.044-.045-.036a.07.07 0 0 0-.045.064z"/><path class="st7" d="M13.443 7.743c0 .015.011.024.025.02.014-.004.025-.02.025-.036 0-.015-.011-.024-.025-.02-.014.004-.025.02-.025.036z"/><path class="st6" d="M13.12 7.844a.07.07 0 0 1-.045.064c-.025.008-.045-.008-.045-.036a.07.07 0 0 1 .045-.064c.025-.008.045.009.045.036z"/><path class="st7" d="M13.1 7.85a.04.04 0 0 1-.025.036c-.014.004-.025-.005-.025-.02a.04.04 0 0 1 .025-.036c.014-.004.025.005.025.02z"/><path class="st6" d="M13.272 7.537a.305.305 0 0 0-.196.279V7.9c0 .12.088.19.196.156a.305.305 0 0 0 .196-.279v-.084c0-.12-.088-.19-.196-.156z"/><path class="st10" d="M13.204 7.806a.04.04 0 0 1-.025.036c-.014.004-.025-.005-.025-.02a.04.04 0 0 1 .025-.036c.014-.004.025.005.025.02zm.185-.058a.04.04 0 0 1-.025.036c-.014.004-.025-.005-.025-.02a.04.04 0 0 1 .025-.036c.014-.004.025.005.025.02z"/><path class="st9" d="M13.302 7.845a.043.043 0 0 1-.03.04c-.017.005-.03-.003-.03-.022 0-.012.013-.058.022-.087.003-.009.013-.012.016-.005.008.025.022.062.022.074z"/><path class="st5" d="M13.2 7.741l-.041.013c-.007.002-.013.009-.013.014s.006.008.013.006l.041-.013c.007-.002.013-.009.013-.014s-.006-.008-.013-.006zm.185-.058l-.041.013c-.007.002-.013.009-.013.014s.006.008.013.006l.041-.013c.007-.002.013-.009.013-.014s-.006-.008-.013-.006zm-.267.059v.028a.066.066 0 0 0-.042.055c-.007.002-.013-.002-.014-.009l-.008-.054.064-.02z"/><path class="st5" d="M13.272 7.498a.348.348 0 0 0-.213.233l.017.053.178-.056.019-.089.019.077.206-.065c-.013-.122-.11-.19-.226-.153z"/><path class="st5" d="M13.426 7.645v.028c.022-.007.04.006.042.028.007-.002.013-.01.014-.017l.008-.059-.064.02z"/><path d="M13.499 7.769c0 .009-.006.018-.014.02-.008.002-.014-.003-.014-.011s.006-.018.014-.02c.008-.003.014.002.014.011zm-.455.143c0 .009.006.014.014.011.008-.002.014-.011.014-.02s-.006-.014-.014-.011c-.008.002-.014.011-.014.02z" fill="#e64a19"/><path class="st8" d="M13.177 7.876c0 .01-.008.021-.017.024-.009.003-.017-.003-.017-.014 0-.01.008-.021.017-.024.009-.003.017.003.017.014zm.189-.06c0 .01.008.016.017.014.01-.003.017-.014.017-.025 0-.01-.008-.016-.017-.014a.03.03 0 0 0-.017.025z"/><path class="st6" d="M13.272 8.258a.228.228 0 0 0 .146-.207l-.291.092c-.001.089.064.14.145.115z"/><path class="st0" d="M0 5.377V13l12.101-3.63V1.964z"/><path class="st1" d="M12.101 1.964L0 5.377v-.803l12.101-3.39z"/><path class="st2" d="M.981 5.113L0 5.377v-.803l.981-.262z"/><path class="st4" d="M4.496 7.777c0 .963-.69 1.944-1.542 2.19-.852.244-1.542-.346-1.542-1.316 0-.97.69-1.948 1.542-2.185.851-.238 1.542.348 1.542 1.311z"/><path class="st11" d="M2.992 9.874c0 .032-.023.064-.051.072-.028.008-.05-.011-.05-.043s.023-.064.051-.072c.027-.008.05.011.05.043z"/><path class="st1" d="M2.652 9.959a.43.43 0 0 1-.004.062 1.148 1.148 0 0 1-.379-.039 1.029 1.029 0 0 1-.283-.126.525.525 0 0 1 .283-.223c.129-.037.244.003.313.095a.367.367 0 0 1 .07.217v.014z"/><path class="st1" d="M3.613 9.249v.361a1.996 1.996 0 0 1-.378.247c-.069.034-.14.064-.212.088l-.063.021-.007.001c-.01.004-.021.006-.032.009l-.064.016c-.071.015-.14.025-.208.029a1.148 1.148 0 0 1-.379-.039v-.349l1.343-.384z"/><path class="st1" d="M3.907 9.319a2.44 2.44 0 0 1-.293.291 2.035 2.035 0 0 1-.379.247.44.44 0 0 1-.004-.064v-.014a.58.58 0 0 1 .07-.256.538.538 0 0 1 .312-.274c.118-.034.224-.005.294.07z"/><path class="st6" d="M3.111 9.649l-.339.098v-.665l.339-.097z"/><path class="st7" d="M2.772 9.378a.611.611 0 0 0 .17-.024.785.785 0 0 0 .169-.073v-.284l-.34.097v.284z"/><path class="st6" d="M3.462 8.204c0 .097.07.156.155.132.086-.025.155-.123.155-.221 0-.097-.07-.156-.155-.132-.085.025-.155.124-.155.221z"/><path class="st7" d="M3.531 8.185c0 .054.039.087.087.074.047-.014.086-.069.086-.124 0-.054-.039-.087-.087-.074-.047.014-.086.07-.086.124z"/><path class="st6" d="M2.421 8.5c0 .098-.07.196-.155.221-.086.024-.156-.036-.156-.133 0-.098.07-.196.155-.221.086-.024.156.035.156.133z"/><path class="st7" d="M2.352 8.519c0 .054-.039.11-.087.123-.048.014-.087-.02-.087-.074 0-.054.039-.11.087-.123.048-.013.087.02.087.074z"/><path class="st6" d="M2.941 7.437c-.373.105-.676.534-.676.959v.296c0 .424.303.682.676.576.373-.107.676-.537.676-.96v-.295c0-.423-.302-.681-.676-.576z"/><path class="st10" d="M2.71 8.377c0 .054-.039.11-.087.123-.048.014-.087-.02-.087-.074 0-.054.039-.11.087-.123.048-.014.087.02.087.074zm.636-.181c0 .054-.039.109-.087.123-.048.014-.086-.019-.086-.073 0-.054.039-.109.087-.123.047-.014.086.019.086.073z"/><path class="st5" d="M2.694 8.128l-.141.04c-.025.007-.045.035-.045.063 0 .028.02.045.045.038l.141-.04c.025-.007.045-.035.045-.063 0-.028-.02-.045-.045-.038zm.636-.18l-.141.04c-.025.007-.045.035-.045.063 0 .028.02.045.045.038l.141-.04c.025-.007.045-.035.045-.063 0-.028-.02-.045-.045-.038z"/><path class="st5" d="M3.056 7.057c-.267.075-.493.34-.566.637a.008.008 0 0 0-.002.004.169.169 0 0 0-.058.006c-.105.03-.19.148-.194.266v.868c0 .048.035.078.077.066l.026-.007c.043-.012.077-.061.077-.11s-.035-.078-.077-.066v-.562a.508.508 0 0 0 .191-.253s.335.14 1.015-.041v.514c-.044.012-.078.061-.078.109s.035.078.077.065l.026-.006c.043-.012.077-.061.077-.11V7.56c0-.37-.265-.595-.591-.503z"/><path class="st3" d="M3.023 9.674v.271l-.063.021-.007.001c-.01.004-.021.006-.032.009l-.064.016v-.27l.166-.048z"/><path d="M2.582 9.525v.481l.358-.31-.173-.281h-.001c-.063.03-.125.067-.184.11zm.719-.206v.48l-.358-.103.173-.381h.001a.751.751 0 0 1 .184.004z" fill="#f5f5f5"/><path d="M2.94 9.752c-.018.005-.033.026-.033.047s.015.034.034.028c.018-.004.033-.026.033-.047s-.015-.034-.034-.028zm.02.214l-.007.001c-.01.004-.021.006-.032.009a.044.044 0 0 1 .019-.012.027.027 0 0 1 .02.002z" fill="#616161"/><path class="st9" d="M3.011 8.557c0-.043-.03-.303-.068-.292-.038.011-.068.288-.068.33 0 .043.03.068.068.058.037-.01.068-.054.068-.096z"/><path class="st3" d="M6.54 6.651l-1.234.356v.32l1.234-.358zm.345.218l1.756-.517v-.317l-1.756.515zm2.101-.936v.317l1.776-.531v-.316zM7.179 7.12l-1.873.546v.32l1.873-.548zm.345.216l1.237-.366v-.317l-1.237.366zm1.582-.47l1.656-.497v-.316l-1.656.497zm.057-2.221L5.306 5.761v.862L9.163 5.5zM6.131 8.084l-.825.241v.32l.825-.242zm.346.218l3.222-.961v-.316l-3.222.958zm3.567-1.065l.718-.218v-.315l-.718.217zM5.306 9.303l2.989-.887v-.317l-2.989.885zm3.335-.99l.522-.158v-.317l-.522.158z"/></svg>