<svg xmlns="http://www.w3.org/2000/svg" viewBox="0 0 16 16"><path d="M8 0a8 8 0 1 0 0 16A8 8 0 0 0 8 0zm0 15c-3.86 0-7-3.14-7-7s3.14-7 7-7 7 3.14 7 7-3.14 7-7 7zM9.617 4c-.02 0-.037.009-.057.011a.489.489 0 0 0-.413.135l-5 5.001A.493.493 0 0 0 4 9.498v2a.5.5 0 0 0 .501.5H6.5a.499.499 0 0 0 .353-.146l5-4.999a.493.493 0 0 0 .135-.414c.003-.019.012-.037.012-.056A2.385 2.385 0 0 0 9.617 4zm-3.324 7H5V9.706l3.25-3.25L9.543 7.75 6.293 11zm3.957-3.957L8.957 5.749l.742-.741A1.376 1.376 0 0 1 10.992 6.3l-.742.743z"/></svg>