<svg id="Layer_1" xmlns="http://www.w3.org/2000/svg" viewBox="0 0 16 16"><style>.st0{fill:#fff}</style><path class="st0" d="M15.821 2.429S11.779 1.808 8.017.158C4.255 1.808.179 2.4.179 2.4c-.472 10.787 7.837 13.443 7.837 13.443s8.277-2.627 7.805-13.414z"/><path d="M14.941 3.077a70.764 70.764 0 0 1-1.837-.293c-.893-.153-1.726-.344-2.566-.657-.876-.328-1.749-.784-2.534-1.11l-.062.027c-.772.325-1.676.786-2.522 1.083-.818.287-1.601.502-2.488.664-.748.137-1.423.23-1.872.293-.011 1.009.098 2.03.247 2.943.162.996.423 1.945.775 2.821a11.308 11.308 0 0 0 2.524 3.832 11.248 11.248 0 0 0 2.579 1.914c.306.164.565.282.756.363l.061.025c.211-.087.521-.226.893-.429a11.295 11.295 0 0 0 2.57-1.939 11.345 11.345 0 0 0 2.482-3.825c.345-.87.6-1.812.759-2.8.144-.9.245-1.917.235-2.912z" fill="#00b272"/><linearGradient id="SVGID_1_" gradientUnits="userSpaceOnUse" y1="8" x2="16" y2="8"><stop offset=".191" stop-color="#897c70"/><stop offset=".211" stop-color="#8e8175"/><stop offset=".235" stop-color="#9d9083"/><stop offset=".261" stop-color="#b5a89b"/><stop offset=".289" stop-color="#d8cabb"/><stop offset=".315" stop-color="#fff1e1"/><stop offset=".422" stop-color="#897c70"/><stop offset=".514" stop-color="#8e8175"/><stop offset=".626" stop-color="#9d9083"/><stop offset=".749" stop-color="#b5a89b"/><stop offset=".878" stop-color="#d8cabb"/><stop offset="1" stop-color="#fff1e1"/></linearGradient><path d="M8.017 16l-.018-.006c-.021-.007-2.142-.701-4.174-2.726a12.477 12.477 0 0 1-2.764-4.187C.261 7.096-.09 4.822.02 2.321l.002-.037.042-.006c.04-.004 4.167-.617 7.93-2.268L8.017 0l.023.01c3.764 1.651 7.856 2.293 7.897 2.299l.041.006.002.036c.109 2.5-.24 4.773-1.037 6.755a12.414 12.414 0 0 1-2.752 4.177c-2.023 2.018-4.136 2.704-4.157 2.711L8.017 16zM.228 2.439c-.232 5.534 1.897 8.87 3.727 10.696 1.89 1.886 3.857 2.592 4.062 2.662.204-.069 2.163-.768 4.045-2.647 1.822-1.819 3.943-5.148 3.71-10.682-.435-.066-4.236-.72-7.755-2.259C4.498 1.747.667 2.376.228 2.439z" fill="url(#SVGID_1_)"/><linearGradient id="SVGID_2_" gradientUnits="userSpaceOnUse" x1="2.701" y1="4.992" x2="14.989" y2="10.662"><stop offset=".191" stop-color="#897c70"/><stop offset=".211" stop-color="#8e8175"/><stop offset=".235" stop-color="#9d9083"/><stop offset=".261" stop-color="#b5a89b"/><stop offset=".289" stop-color="#d8cabb"/><stop offset=".315" stop-color="#fff1e1"/><stop offset=".422" stop-color="#897c70"/><stop offset=".514" stop-color="#8e8175"/><stop offset=".626" stop-color="#9d9083"/><stop offset=".749" stop-color="#b5a89b"/><stop offset=".878" stop-color="#d8cabb"/><stop offset="1" stop-color="#fff1e1"/></linearGradient><path d="M8.013 1.125l.14.064c1.228.559 2.388 1.134 3.749 1.478a58.52 58.52 0 0 0 2.929.518c.003.86-.078 1.825-.235 2.8a13.292 13.292 0 0 1-.754 2.782 11.244 11.244 0 0 1-2.46 3.793 11.16 11.16 0 0 1-1.35 1.162c-.384.278-.786.533-1.193.755-.34.185-.627.316-.822.399a9.18 9.18 0 0 1-.748-.359 10.727 10.727 0 0 1-1.19-.742 11.182 11.182 0 0 1-1.362-1.152 11.212 11.212 0 0 1-2.502-3.8c-.329-.818-.581-1.735-.771-2.804a17.134 17.134 0 0 1-.275-2.868c.241-.037.547-.084.586-.087.342-.031.684-.087 1.034-.148 1.665-.288 3.256-.849 4.727-1.574a8.83 8.83 0 0 1 .497-.217m.004-.13s-.351.139-.567.245c-1.456.718-3.045 1.277-4.687 1.561a36.998 36.998 0 0 1-1.727.252s-.034 1.248.275 2.984c.177.995.424 1.948.777 2.825A11.328 11.328 0 0 0 4.616 12.7a11.275 11.275 0 0 0 2.583 1.916c.34.182.623.308.818.389.211-.087.522-.226.894-.429.412-.225.819-.483 1.208-.767a11.33 11.33 0 0 0 1.366-1.175 11.348 11.348 0 0 0 2.485-3.831c.344-.871.6-1.814.759-2.803.145-.903.247-1.92.236-2.918-.648-.074-2.684-.457-3.014-.553-1.43-.328-2.633-.943-3.934-1.534z" fill="url(#SVGID_2_)"/><radialGradient id="SVGID_3_" cx="3.37" cy=".179" r="10.067" gradientTransform="matrix(1 0 0 .9375 0 6.403)" gradientUnits="userSpaceOnUse"><stop offset=".518" stop-color="#fff"/><stop offset="1"/></radialGradient><path d="M10.937 7.375l.023-.067-.002-.001-.021.068z" opacity=".1" fill="url(#SVGID_3_)"/><linearGradient id="SVGID_4_" gradientUnits="userSpaceOnUse" x1="4" y1="8.04" x2="12.813" y2="8.04"><stop offset=".191" stop-color="#897c70"/><stop offset=".211" stop-color="#8e8175"/><stop offset=".235" stop-color="#9d9083"/><stop offset=".261" stop-color="#b5a89b"/><stop offset=".289" stop-color="#d8cabb"/><stop offset=".315" stop-color="#fff1e1"/><stop offset=".422" stop-color="#897c70"/><stop offset=".514" stop-color="#8e8175"/><stop offset=".626" stop-color="#9d9083"/><stop offset=".749" stop-color="#b5a89b"/><stop offset=".878" stop-color="#d8cabb"/><stop offset="1" stop-color="#fff1e1"/></linearGradient><path fill="url(#SVGID_4_)" d="M4 8.726l1.115-1.295L7.2 9.294l4.277-4.938 1.336 1.134-5.564 6.235z"/><path class="st0" d="M5.116 7.553l-.985 1.172 3.115 2.876 5.441-6.111-1.211-1.009-4.275 4.935z"/></svg>