<svg xmlns="http://www.w3.org/2000/svg" xmlns:xlink="http://www.w3.org/1999/xlink" width="68" height="40"><defs><path id="a" d="M1092.981 340.975c-5.526 0-10.005-4.479-10.005-10.003v-20.009c0-5.524 4.48-10.003 10.005-10.003 5.524 0 10.003 4.479 10.003 10.003v20.009c0 5.524-4.479 10.003-10.003 10.003zm-47.517 0c-5.526 0-10.005-4.479-10.005-10.003 0-5.525 4.479-10.005 10.005-10.005 5.524 0 10.002 4.48 10.002 10.005 0 5.524-4.478 10.003-10.002 10.003zm24.933 0a10.066 10.066 0 0 1-9.003-5.563l-9.941-19.883c-3.348-6.694 1.52-14.569 9.003-14.569 3.813 0 7.298 2.155 9.003 5.565l9.941 19.883c3.346 6.692-1.52 14.567-9.003 14.567z"/><linearGradient id="b" x1="1048.98" x2="1089.46" y1="340.98" y2="300.96" gradientUnits="userSpaceOnUse"><stop offset="0" stop-color="#e9ebee" stop-opacity="0"/><stop offset="1" stop-color="#e9ebee" stop-opacity=".36"/></linearGradient></defs><g transform="translate(-1035 -301)"><use fill="#1bb470" xlink:href="#a"/><use fill="url(#b)" xlink:href="#a"/></g></svg>