<svg id="Layer_1" xmlns="http://www.w3.org/2000/svg" viewBox="0 0 13 16"><style>.st0{fill:#0c8d75}</style><path class="st0" d="M5.795 13.039l.05-.034c2.55-1.531 4.611-5.183 4.603-8.177-.004-1.497-.524-2.55-1.362-3.046l1.441.853c.838.496 1.358 1.549 1.362 3.046.008 2.994-2.052 6.646-4.603 8.177l-.05.034c-1.296.762-2.471.832-3.32.329l-.72-.426-.72-.426c.848.501 2.023.432 3.319-.33z"/><path class="st0" d="M5.761.808l.05-.03C7.398-.139 8.833-.218 9.873.397l1.441.853c-1.04-.616-2.476-.536-4.062.381l-.05.03C4.01 3.538 1.43 8.089 1.441 11.826c.005 1.856.649 3.162 1.686 3.777l-1.441-.853C.649 14.135.005 12.829 0 10.973-.01 7.236 2.569 2.685 5.761.808z"/><path d="M7.252 1.631C10.421-.201 12.99 1.31 13 5.027c.01 3.717-2.541 8.239-5.71 10.134l-.05.032c-3.192 1.877-5.788.37-5.799-3.366C1.43 8.089 4.01 3.538 7.201 1.661l.051-.03zm-.016 12.261l.05-.034c2.55-1.531 4.611-5.183 4.603-8.177-.009-2.995-2.083-4.215-4.634-2.747l-.05.027C4.63 4.476 2.543 8.158 2.552 11.172c.008 3.015 2.109 4.234 4.684 2.72z" fill="#f5f3ef"/><path d="M3.492 13.887c.851.61 2.082.591 3.451-.214l.052-.035c2.527-1.519 4.569-5.139 4.56-8.106-.004-1.585-.596-2.663-1.529-3.107-.774-.233-1.731-.089-2.772.51l-.05.027c-2.574 1.514-4.661 5.196-4.652 8.21.003 1.224.356 2.146.94 2.715z" fill="#0cb175"/><path d="M9 8.456c0-.56-.161-.903-.477-1.033-.13-.052-.39-.06-.775-.046V5.938c.217-.052.372.062.471.348l.719-1.015c-.229-.578-.626-.746-1.19-.505V4l-.415.248v.749c-.347.25-.638.605-.88 1.05a2.98 2.98 0 0 0-.354 1.426c.025.674.205.981.539 1.074.248.068.384.072.676.045l.012.001.006-.004v1.49c-.328.136-.558.005-.688-.373l-.737 1.034c.217.672.731.856 1.425.511V12l.415-.248v-.758A3.264 3.264 0 0 0 9 8.456zM6.949 6.975c0-.301.136-.598.384-.815v1.206c-.279-.032-.384-.141-.384-.391zm.799 1.599c.273.009.397.116.397.401 0 .319-.13.603-.397.84V8.574z" fill="#fff"/></svg>