<svg xmlns="http://www.w3.org/2000/svg" viewBox="0 0 16 16" fill="#faa61a"><path d="M8 .468l1.893 5.207.109.299.317.028 5.181.466-3.976 2.793-.312.219.127.358 2.017 5.662-5.081-3.332-.274-.18-.274.18-5.084 3.33 2.017-5.66.127-.358-.311-.219L.5 6.466l5.184-.465.317-.028.109-.299L7.972.504C7.974.504 7.985.5 8 .5V.468M8 0c-.199 0-.398.099-.47.297L5.64 5.503l-5.184.465a.5.5 0 0 0-.243.909L4.189 9.67l-2.017 5.66a.503.503 0 0 0 .471.67.496.496 0 0 0 .274-.082l5.085-3.332 5.082 3.332a.493.493 0 0 0 .583-.026.5.5 0 0 0 .161-.562l-2.017-5.66 3.976-2.793a.5.5 0 0 0-.243-.909l-5.182-.465L8.47.297C8.398.099 8.199 0 8 0z"/></svg>