<svg xmlns="http://www.w3.org/2000/svg" width="19.438" height="20"><path data-name="Shape 5 copy 11" d="M13.785 20H5.651a5.678 5.678 0 0 1-5.658-5.66V5.67A5.678 5.678 0 0 1 5.651.01h8.134a5.678 5.678 0 0 1 5.659 5.66v8.67A5.678 5.678 0 0 1 13.785 20zm0-1.5a4.172 4.172 0 0 0 4.163-4.16V5.67a4.172 4.172 0 0 0-4.163-4.16H5.651a4.172 4.172 0 0 0-4.162 4.16v8.67a4.172 4.172 0 0 0 4.162 4.16h8.134zm1.319-8.57a5.356 5.356 0 1 1-5.356-5.35 5.358 5.358 0 0 1 5.356 5.35zm-5.381-3.5a3.505 3.505 0 1 0 3.507 3.5 3.506 3.506 0 0 0-3.507-3.5zm6.735-1.94a1.268 1.268 0 1 1-1.267-1.27 1.269 1.269 0 0 1 1.267 1.27z" fill-rule="evenodd"/></svg>