<svg xmlns="http://www.w3.org/2000/svg" xmlns:xlink="http://www.w3.org/1999/xlink" width="32" height="32"><defs><path id="a" d="M2870.539 998.001a2.895 2.895 0 0 1-2.05-.861l-9.614-9.646c-1.135-1.14-1.127-2.929.017-4.073l17.24-17.13c.188-.187.442-.292.706-.292h12.14a1 1 0 0 1 1 1v12.212a.991.991 0 0 1-.29.704l-17.093 17.223a2.898 2.898 0 0 1-2.056.863zm6.71-30.002l-16.944 16.838c-.376.375-.381.877-.014 1.244l9.613 9.647c.367.367.905.367 1.276-.004l16.798-16.925v-10.8zm3.73 11c-2.206 0-4-1.794-4-4s1.794-4 4-4c2.205 0 4 1.794 4 4s-1.795 4-4 4zm0-6c-1.104 0-2 .897-2 2s.896 2 2 2c1.103 0 2-.897 2-2s-.897-2-2-2zm-13.958-5h-8c-.55 0-1-.45-1-1s.45-1 1-1h8c.55 0 1 .45 1 1s-.45 1-1 1zm-6 6h-2c-.55 0-1-.45-1-1s.45-1 1-1h2c.55 0 1 .45 1 1s-.45 1-1 1z"/></defs><use fill="#0cb175" xlink:href="#a" transform="translate(-2858 -966)"/></svg>