<svg xmlns="http://www.w3.org/2000/svg" xmlns:xlink="http://www.w3.org/1999/xlink" width="60" height="25"><defs><path id="a" d="M1619.227 1311.863c-.07-1.905-.572-2.823-1.541-2.823-.988 0-1.507.9-1.629 2.823zm3.984 2.633h-7.118c.086.883.346 1.507.795 1.89.416.362.988.535 1.82.535 1.385 0 2.615-.311 3.672-.885l.468 2.947c-1.074.71-2.773 1.142-4.609 1.142-1.991 0-3.533-.519-4.607-1.559-1.195-1.16-1.802-2.979-1.802-5.405 0-4.33 2.27-7.032 5.924-7.032 1.786 0 3.188.625 4.124 1.834.918 1.197 1.385 2.896 1.385 5.045 0 .31-.033 1.28-.052 1.488zm-16.543-1.612c0-2.304-.537-3.48-1.628-3.48-.244 0-.9.086-1.63.848v6.41c.347.171.73.259 1.162.259.624 0 1.16-.348 1.507-1.003.399-.695.59-1.716.59-3.034zm4.279-.155c0 2.58-.59 4.542-1.75 5.804-1.212 1.317-2.772 1.592-3.846 1.592a6.637 6.637 0 0 1-1.941-.31v4.33l-4.295.71v-18.466h3.776l.225 1.35c1.023-1.092 2.115-1.61 3.362-1.61 1.35 0 2.407.487 3.17 1.471.867 1.108 1.299 2.841 1.299 5.129zm-17.836-6.34h4.314v13.477h-4.314zm-.103-3.603a2.256 2.256 0 0 1 2.267-2.271 2.254 2.254 0 0 1 2.253 2.27 2.26 2.26 0 1 1-4.52 0zm-.936 3.52v3.966c-.295-.05-.538-.05-.763-.05-1.039 0-1.801.239-2.339.897v8.747h-4.295v-13.477h3.757l.262 1.596c.38-1.146 1.35-1.782 2.564-1.782.259 0 .519.035.814.103zm-11.278 3.273v5.628c0 .987.365 1.418 1.212 1.418.4 0 .987-.118 1.248-.188v3.379c-.468.12-1.144.31-2.252.31-1.439 0-2.46-.276-3.17-.85-.848-.691-1.264-1.817-1.264-3.446v-6.251h-1.779l.486-2.982 1.299-.208.53-3.262 3.69-.607v3.869h2.745l-.52 3.19zm-10.082 1.885c2.374.85 3.846 1.855 3.846 4.263 0 1.453-.503 2.58-1.472 3.341-.868.695-2.148 1.057-3.69 1.057-1.94 0-3.811-.587-4.816-1.16l.518-3.238c1.18.69 2.981 1.229 4.073 1.229.883 0 1.368-.33 1.368-.9 0-.59-.503-.97-2.01-1.507-2.338-.85-3.776-1.855-3.776-4.21 0-1.299.468-2.376 1.368-3.119.866-.708 2.08-1.09 3.533-1.09 2.064 0 3.553.57 4.28.918l-.52 3.204c-.918-.452-2.251-.952-3.552-.952-.709 0-1.107.279-1.107.76 0 .572.692.936 1.957 1.404z"/></defs><use fill="#8a8c8e" xlink:href="#a" transform="translate(-1564 -1300)"/></svg>