<svg xmlns="http://www.w3.org/2000/svg" width="24.625" height="20.03"><path data-name="Shape 20 copy 17" d="M22.094 4.99c.008.22.014.43.014.65A14.37 14.37 0 0 1-.014 17.75a11.94 11.94 0 0 0 1.2.07 10.169 10.169 0 0 0 6.276-2.16 5.083 5.083 0 0 1-4.72-3.51 4.96 4.96 0 0 0 .95.09 4.884 4.884 0 0 0 1.332-.18A5.053 5.053 0 0 1 .972 7.11v-.07a5.061 5.061 0 0 0 2.288.64 5.067 5.067 0 0 1-2.248-4.21A5 5 0 0 1 1.696.93a14.336 14.336 0 0 0 10.415 5.28 5.166 5.166 0 0 1-.131-1.15 5.053 5.053 0 0 1 8.742-3.46A10.209 10.209 0 0 0 23.931.37a5.094 5.094 0 0 1-2.222 2.8 10.116 10.116 0 0 0 2.9-.8 10.135 10.135 0 0 1-2.515 2.62z" fill="#1da1f3" fill-rule="evenodd"/></svg>