<svg xmlns="http://www.w3.org/2000/svg" viewBox="0 0 16 10"><path d="M15.657 4.29L8.609.198c-.455-.264-1.191-.264-1.644 0l-1.87 1.093-2.886 1.687L.34 4.07c-.453.265-.45.694.005.958L7.393 9.12c.455.264 1.191.264 1.645-.001l1.869-1.092 2.887-1.687 1.87-1.093c.451-.264.448-.693-.007-.957z" fill="#0cb175"/><path d="M15.662 5.247l-1.87 1.093-2.887 1.687-1.868 1.092c-.453.265-1.189.265-1.644.001L.345 5.028C.116 4.895.001 4.72.002 4.546L0 5.228c0 .175.114.349.343.482l7.048 4.092c.455.264 1.191.264 1.645-.001l1.869-1.092 2.887-1.687 1.87-1.093c.225-.131.337-.303.338-.475v-.682c0 .172-.113.344-.338.475z" fill="#a8bdcc"/></svg>