<svg xmlns="http://www.w3.org/2000/svg" viewBox="0 0 12 16" fill="#0cb175"><path d="M10 2L8 0H.85A.85.85 0 0 0 0 .85v14.299c0 .47.38.851.85.851h10.3a.85.85 0 0 0 .85-.851V4l-2-2zm-3.376 9.618c-.19.521-.438.878-.744 1.072-.307.194-.613.291-.919.291-.289 0-.506-.051-.649-.152a.634.634 0 0 1-.27-.408 1.46 1.46 0 0 1 .013-.593c.045-.225.112-.455.202-.692l1.448-3.993c.189-.544.127-.817-.189-.817-.208 0-.393.11-.555.33-.163.218-.334.556-.515 1.011l-.19.487H4l.352-.966c.1-.273.217-.5.352-.681.135-.181.276-.319.425-.417.149-.097.302-.165.46-.205.157-.039.304-.06.44-.06.288 0 .5.058.635.172.136.114.22.262.251.442s.023.38-.027.599c-.049.22-.11.43-.182.632l-1.447 3.994c-.098.254-.133.454-.1.599.031.145.136.218.317.218s.352-.096.514-.29c.162-.192.343-.543.541-1.051l.189-.487h.257l-.353.965zm1.163-8.241a1.064 1.064 0 0 1-.358.609c-.194.171-.409.257-.643.257s-.414-.086-.541-.257a.742.742 0 0 1-.121-.609c.045-.234.162-.437.352-.608a.925.925 0 0 1 .636-.257.65.65 0 0 1 .548.257c.13.171.172.374.127.608z"/></svg>