<svg xmlns="http://www.w3.org/2000/svg" xmlns:xlink="http://www.w3.org/1999/xlink" width="18" height="18"><defs><path id="a" d="M1512 1044c0 .55-.45 1-1 1h-1v11.185a2.819 2.819 0 0 1-2.816 2.815h-8.367a2.818 2.818 0 0 1-2.816-2.815V1045h-1c-.55 0-1.001-.45-1.001-1s.45-1 1-1h5v-1c0-.55.45-1 1-1h4c.55 0 1 .45 1 1v1h5c.55 0 1 .45 1 1zm-10 13h2v-12h-2zm-3.183 0H1500v-12h-2v11.185c0 .449.368.815.817.815zm9.183-12h-2v12h1.184c.45 0 .816-.366.816-.815z"/></defs><use xlink:href="#a" transform="translate(-1494 -1041)"/></svg>